<svg width="4000" height="4000" viewBox="0 0 4000 4000" fill="none" xmlns="http://www.w3.org/2000/svg">
<path d="M4000 0H0V4000H4000V0Z" fill="url(#paint0_linear_1_743)"/>
<path d="M3081.75 2552.9C3081.21 2564.44 3071.42 2573.37 3059.87 2572.84C3048.32 2572.31 3039.39 2562.51 3039.92 2550.96C3040.46 2539.41 3050.25 2530.48 3061.8 2531.02C3073.35 2531.55 3082.28 2541.35 3081.75 2552.9Z" fill="white"/>
<path d="M3396.52 1195.34C3396.52 1206.9 3387.15 1216.27 3375.59 1216.27C3364.03 1216.27 3354.65 1206.9 3354.65 1195.34C3354.65 1183.78 3364.03 1174.41 3375.59 1174.41C3387.15 1174.41 3396.52 1183.78 3396.52 1195.34Z" fill="white"/>
<path d="M2719.4 942.117C2719.4 953.679 2710.03 963.051 2698.47 963.051C2686.9 963.051 2677.53 953.679 2677.53 942.117C2677.53 930.556 2686.91 921.183 2698.47 921.183C2710.03 921.183 2719.4 930.556 2719.4 942.117Z" fill="white"/>
<path d="M1090.08 3012.4C1090.08 3029.69 1076.07 3043.7 1058.78 3043.7C1041.5 3043.7 1027.48 3029.69 1027.48 3012.4C1027.48 2995.12 1041.5 2981.1 1058.78 2981.1C1076.07 2981.1 1090.08 2995.12 1090.08 3012.4Z" fill="white"/>
<path d="M774.598 1342.01C772.7 1353.41 761.916 1361.12 750.511 1359.22C739.107 1357.32 731.401 1346.54 733.299 1335.13C735.197 1323.73 745.981 1316.02 757.386 1317.92C768.79 1319.82 776.496 1330.6 774.598 1342.01Z" fill="white"/>
<path d="M712.967 689.248C711.069 700.652 700.285 708.359 688.881 706.46C677.477 704.562 669.77 693.778 671.669 682.374C673.567 670.97 684.351 663.263 695.755 665.162C707.159 667.06 714.865 677.844 712.967 689.248Z" fill="white"/>
<path d="M649.343 2397.6C649.343 2409.16 639.971 2418.53 628.409 2418.53C616.847 2418.53 607.475 2409.16 607.475 2397.6C607.475 2386.04 616.847 2376.66 628.409 2376.66C639.97 2376.66 649.343 2386.04 649.343 2397.6Z" fill="white"/>
<path d="M1220.05 743.391C1218.16 754.795 1207.37 762.501 1195.97 760.603C1184.56 758.705 1176.86 747.921 1178.76 736.516C1180.65 725.111 1191.44 717.405 1202.84 719.303C1214.25 721.202 1221.95 731.986 1220.05 743.391Z" fill="white"/>
<path d="M3510.25 2798.95C3509.72 2810.5 3499.92 2819.43 3488.37 2818.89C3476.82 2818.36 3467.89 2808.56 3468.43 2797.01C3468.96 2785.46 3478.76 2776.53 3490.31 2777.07C3501.85 2777.6 3510.79 2787.4 3510.25 2798.95Z" fill="white"/>
<path d="M3078.82 3228.79C3078.29 3240.34 3068.49 3249.27 3056.94 3248.74C3045.39 3248.2 3036.46 3238.41 3037 3226.86C3037.53 3215.31 3047.33 3206.38 3058.87 3206.91C3070.42 3207.45 3079.35 3217.24 3078.82 3228.79Z" fill="white"/>
<path d="M3263.09 525.881C3263.09 537.443 3253.72 546.815 3242.16 546.815C3230.59 546.815 3221.22 537.443 3221.22 525.881C3221.22 514.32 3230.59 504.947 3242.16 504.947C3253.72 504.947 3263.09 514.32 3263.09 525.881Z" fill="white"/>
<path d="M2510.19 3319.91C2509.66 3331.46 2499.87 3340.39 2488.32 3339.86C2476.77 3339.32 2467.84 3329.53 2468.37 3317.98C2468.9 3306.43 2478.7 3297.5 2490.25 3298.03C2501.8 3298.57 2510.73 3308.36 2510.19 3319.91Z" fill="white"/>
<path d="M1481.19 3310.31C1481.19 3321.87 1471.82 3331.25 1460.26 3331.25C1448.69 3331.25 1439.32 3321.87 1439.32 3310.31C1439.32 3298.75 1448.69 3289.38 1460.26 3289.38C1471.82 3289.38 1481.19 3298.75 1481.19 3310.31Z" fill="white"/>
<path d="M464.684 1992.84C464.684 2004.4 455.312 2013.77 443.75 2013.77C432.188 2013.77 422.816 2004.4 422.816 1992.84C422.816 1981.28 432.188 1971.9 443.75 1971.9C455.312 1971.9 464.684 1981.28 464.684 1992.84Z" fill="white"/>
<path d="M3423.92 1835.87C3423.92 1847.43 3414.54 1856.81 3402.98 1856.81C3391.42 1856.81 3382.05 1847.43 3382.05 1835.87C3382.05 1824.31 3391.42 1814.94 3402.98 1814.94C3414.55 1814.94 3423.92 1824.31 3423.92 1835.87Z" fill="white"/>
<path d="M660.683 3248.04C660.683 3259.6 651.311 3268.97 639.75 3268.97C628.189 3268.97 618.816 3259.6 618.816 3248.04C618.816 3236.48 628.188 3227.11 639.75 3227.11C651.312 3227.11 660.683 3236.48 660.683 3248.04Z" fill="white"/>
<defs>
<linearGradient id="paint0_linear_1_743" x1="3722.5" y1="371.5" x2="226.5" y2="3655" gradientUnits="userSpaceOnUse">
<stop stop-color="#240847"/>
<stop offset="1" stop-color="#3C6FDC"/>
</linearGradient>
</defs>
</svg>
