<svg width="2359" height="1667" viewBox="0 0 2359 1667" fill="none" xmlns="http://www.w3.org/2000/svg">
<path d="M1440.17 1561.19C1548.49 1525.24 1616.04 1435.05 1591.05 1359.75C1566.05 1284.44 1457.98 1252.54 1349.66 1288.49C1241.34 1324.44 1173.79 1414.63 1198.78 1489.94C1223.78 1565.24 1331.85 1597.15 1440.17 1561.19Z" fill="#66B3FF"/>
<path d="M826.659 1643.34C940.789 1643.34 1033.31 1579.02 1033.31 1499.67C1033.31 1420.33 940.789 1356.01 826.659 1356.01C712.529 1356.01 620.008 1420.33 620.008 1499.67C620.008 1579.02 712.529 1643.34 826.659 1643.34Z" fill="#66B3FF"/>
<path d="M1953.93 1265.19C2043.93 1195 2077.34 1087.38 2028.54 1024.81C1979.74 962.239 1867.23 968.416 1777.22 1038.61C1687.22 1108.8 1653.81 1216.42 1702.61 1278.99C1751.41 1341.56 1863.93 1335.38 1953.93 1265.19Z" fill="#66B3FF"/>
<path d="M1352.34 1598.93C1268.74 1598.93 1197.98 1561.14 1176.76 1497.21C1162.21 1453.37 1172.48 1404.83 1205.66 1360.52C1236.96 1318.72 1285.51 1285.31 1342.35 1266.45C1462.63 1226.53 1584.06 1265.08 1613.05 1352.4C1613.05 1352.41 1613.05 1352.41 1613.05 1352.41C1642.03 1439.73 1567.75 1543.25 1447.46 1583.17C1415.24 1593.86 1382.92 1598.93 1352.34 1598.93ZM1439.29 1296.71C1413.15 1296.71 1385.1 1301.13 1356.96 1310.47C1309.02 1326.38 1268.47 1354.03 1242.78 1388.32C1218.97 1420.12 1211.16 1453.6 1220.79 1482.6C1241.71 1545.65 1336.85 1571.02 1432.85 1539.15C1528.86 1507.28 1589.94 1430.06 1569.02 1367.02C1554.23 1322.45 1502.35 1296.71 1439.29 1296.71Z" fill="#000072"/>
<path d="M826.658 1666.53C699.922 1666.53 596.817 1591.68 596.817 1499.68C596.817 1407.67 699.923 1332.82 826.658 1332.82C953.393 1332.82 1056.5 1407.67 1056.5 1499.68C1056.5 1591.68 953.394 1666.53 826.658 1666.53ZM826.658 1379.2C725.498 1379.2 643.199 1433.25 643.199 1499.68C643.199 1566.1 725.499 1620.15 826.658 1620.15C927.82 1620.15 1010.12 1566.1 1010.12 1499.68C1010.12 1433.25 927.82 1379.2 826.658 1379.2Z" fill="#000072"/>
<path d="M1802.22 1345.35C1752.14 1345.35 1710.51 1327.08 1684.13 1293.25C1627.55 1220.7 1662.83 1098.27 1762.76 1020.33C1809.99 983.503 1864.71 961.645 1916.86 958.781C1972.1 955.734 2018.21 974.135 2046.62 1010.56C2075.02 1046.99 2081.63 1096.16 2065.22 1149.03C2049.74 1198.9 2015.21 1246.65 1967.98 1283.48C1920.76 1320.31 1866.04 1342.16 1813.89 1345.03C1809.96 1345.24 1806.06 1345.35 1802.22 1345.35ZM1928.41 1004.84C1925.45 1004.84 1922.45 1004.93 1919.4 1005.09C1876.62 1007.44 1831.12 1025.84 1791.29 1056.91C1711.52 1119.12 1679.85 1212.34 1720.71 1264.72C1739.5 1288.82 1771.69 1300.89 1811.35 1298.72C1854.13 1296.37 1899.63 1277.97 1939.46 1246.9C1979.29 1215.84 2008.22 1176.2 2020.92 1135.28C2032.7 1097.35 2028.83 1063.18 2010.04 1039.09C1992.7 1016.84 1963.93 1004.84 1928.41 1004.84Z" fill="#000072"/>
<path d="M2080.21 972.61C1991.77 1152.88 1722.6 1347.38 1373.03 1463.5C1023.45 1579.61 691.044 1584.55 512.474 1492.72C744.388 1506.48 1036.75 1464.89 1340.09 1364.24C1643.44 1263.59 1902.41 1122.12 2080.21 972.61Z" fill="#FF73CC"/>
<path d="M1340.09 1364.24C708.053 1574.04 123.474 1527.04 34.5729 1259.26C-54.1731 991.473 386.155 604.486 1018.35 394.681C1562.58 214.097 2071.55 223.683 2259.09 400.711C2259.09 400.711 2259.09 400.711 2259.25 400.866C2289.55 429.468 2311.35 462.4 2323.72 499.507C2412.62 767.288 1972.29 1154.43 1340.09 1364.24Z" fill="#0FD9F1"/>
<g opacity="0.6">
<path d="M2332.22 610.051C2330.21 599.383 2327.59 588.715 2324.03 578.356C2311.04 539.085 2288 504.298 2255.84 474.149C2255.69 473.994 2255.69 473.994 2255.69 473.994C2057.48 286.917 1519.6 276.712 944.451 467.501C664.297 560.575 419.859 686.428 237.268 822.175C414.914 659.526 690.889 503.371 1018.35 394.68C1562.58 214.096 2071.55 223.682 2259.09 400.71C2259.09 400.71 2259.09 400.71 2259.25 400.865C2289.55 429.467 2311.35 462.399 2323.72 499.506C2335.32 534.447 2337.94 571.553 2332.22 610.051Z" fill="white"/>
</g>
<g opacity="0.2">
<path d="M1340.09 1364.24C708.053 1574.04 123.474 1527.04 34.5728 1259.26C34.5728 1259.26 130.275 946.172 431.764 739.305C431.764 739.305 265.426 972.611 557.892 1119.55C945.894 1314.48 2233.67 847.301 2259.09 400.711C2259.09 400.711 2259.09 400.711 2259.25 400.866C2289.55 429.468 2311.35 462.4 2323.72 499.507C2412.62 767.288 1972.29 1154.43 1340.09 1364.24Z" fill="#000072"/>
</g>
<path d="M1340.09 1364.24C708.053 1574.04 123.474 1527.04 34.5729 1259.26C27.4619 1238.08 23.7509 1216.12 23.2869 1193.39C174.031 1407.99 716.093 1432.88 1298.66 1239.47C1880.92 1046.21 2300.38 702.508 2293.57 440.445C2306.71 458.689 2316.76 478.478 2323.72 499.506C2412.62 767.288 1972.29 1154.43 1340.09 1364.24Z" fill="#737FFF"/>
<g opacity="0.2">
<path d="M2321.24 656.898C2244.87 903.191 1856.49 1192.77 1340.09 1364.24C708.052 1574.04 123.473 1527.04 34.5719 1259.26C27.4609 1238.08 23.7499 1216.12 23.2859 1193.39C103.837 1307.96 296.019 1368.57 546.331 1370.42C782.11 1388.97 1085.14 1348.16 1399.77 1243.64C1833.76 1099.55 2177.31 872.114 2321.24 656.898Z" fill="#000072"/>
</g>
<path d="M298.7 1135.42C332.014 1135.42 359.021 1108.42 359.021 1075.1C359.021 1041.79 332.014 1014.78 298.7 1014.78C265.385 1014.78 238.379 1041.79 238.379 1075.1C238.379 1108.42 265.385 1135.42 298.7 1135.42Z" fill="#FFD45C"/>
<path d="M1293.74 1093.25C1327.05 1093.25 1354.06 1066.25 1354.06 1032.93C1354.06 999.617 1327.05 972.61 1293.74 972.61C1260.42 972.61 1233.41 999.617 1233.41 1032.93C1233.41 1066.25 1260.42 1093.25 1293.74 1093.25Z" fill="#FFD45C"/>
<path d="M1999.27 521.356C2032.58 521.356 2059.59 494.35 2059.59 461.035C2059.59 427.721 2032.58 400.714 1999.27 400.714C1965.95 400.714 1938.95 427.721 1938.95 461.035C1938.95 494.35 1965.95 521.356 1999.27 521.356Z" fill="#FFD45C"/>
<path d="M298.699 1158.62C252.652 1158.62 215.188 1121.15 215.188 1075.1C215.188 1029.05 252.651 991.591 298.699 991.591C344.749 991.591 382.212 1029.05 382.212 1075.1C382.213 1121.15 344.749 1158.62 298.699 1158.62ZM298.699 1037.97C278.225 1037.97 261.57 1054.63 261.57 1075.1C261.57 1095.58 278.225 1112.23 298.699 1112.23C319.173 1112.23 335.83 1095.58 335.83 1075.1C335.831 1054.63 319.173 1037.97 298.699 1037.97Z" fill="#000072"/>
<path d="M601.695 1518.6C560.467 1518.6 520.457 1517.06 481.793 1513.95C225.35 1493.34 58.7288 1405.5 12.6278 1266.6C-33.4712 1127.7 47.5568 957.66 240.782 787.802C428.851 622.48 702.379 475.024 1010.98 372.597C1319.58 270.17 1627 224.799 1876.6 244.872C2133.04 265.482 2299.66 353.329 2345.76 492.228C2391.86 631.124 2310.83 801.166 2117.61 971.025C1929.54 1136.35 1656.01 1283.8 1347.41 1386.23C1086.61 1472.79 826.617 1518.59 601.695 1518.6ZM1756.42 286.596C1536.56 286.596 1281.78 331.591 1025.59 416.62C722.753 517.133 454.911 661.327 271.407 822.638C93.0598 979.413 16.7928 1131.89 56.6508 1251.99C96.5088 1372.08 248.814 1448.7 485.508 1467.72C729.065 1487.3 1029.96 1442.72 1332.8 1342.21C1635.64 1241.69 1903.48 1097.5 2086.98 936.188C2265.33 779.411 2341.6 626.93 2301.74 506.837C2261.88 386.744 2109.57 310.128 1872.88 291.105C1835.36 288.09 1796.46 286.596 1756.42 286.596Z" fill="#000072"/>
<path d="M841.615 1579.5C706.024 1579.5 587.933 1557.6 501.866 1513.34C492.117 1508.33 487.21 1497.17 490.106 1486.59C492.999 1476.02 502.923 1468.94 513.849 1469.57C751.886 1483.69 1042.74 1438.46 1332.79 1342.22C1622.33 1246.16 1882.47 1108.59 2065.28 954.863C2073.67 947.805 2085.86 947.59 2094.5 954.345C2103.14 961.1 2105.86 972.983 2101.03 982.826C2007.29 1173.91 1724.41 1371.22 1380.34 1485.5C1192.51 1547.89 1004.46 1579.5 841.615 1579.5ZM660.064 1517.47C846.182 1554.19 1105.27 1527.99 1365.72 1441.49C1625.94 1355.05 1849.14 1221.26 1976.46 1080.74C1802.76 1201.22 1584.58 1307.55 1347.39 1386.25C1109.79 1465.09 871.168 1510.3 660.064 1517.47Z" fill="#000072"/>
<path d="M601.763 1518.61C560.515 1518.61 520.479 1517.07 481.795 1513.96C225.323 1493.34 58.6799 1405.48 12.5639 1266.56C4.81491 1243.49 0.612902 1219 0.100902 1193.87C-0.109098 1183.67 6.3749 1174.53 16.0699 1171.35C25.7619 1168.18 36.3949 1171.71 42.2639 1180.06C111.348 1278.41 273.89 1337.43 499.945 1346.26C732.721 1355.33 1013.79 1309.61 1291.35 1217.46C1568.76 1125.38 1821.29 994.072 2002.44 847.717C2178.35 705.595 2273.51 561.172 2270.39 441.05C2270.13 430.877 2276.52 421.721 2286.17 418.469C2295.8 415.227 2306.44 418.635 2312.39 426.892C2326.79 446.882 2338.01 468.862 2345.74 492.222C2391.85 631.119 2310.84 801.17 2117.63 971.031C1929.58 1136.36 1656.03 1283.82 1347.4 1386.25C1086.65 1472.8 826.69 1518.61 601.763 1518.61ZM62.6029 1267.78C110.293 1378.82 259.407 1449.55 485.513 1467.73C729.085 1487.29 1029.98 1442.74 1332.79 1342.23C1332.79 1342.22 1332.79 1342.22 1332.79 1342.22C1635.66 1241.71 1903.51 1097.52 2087.01 936.195C2257.26 786.517 2334.47 640.753 2306.42 523.336C2276.27 637.586 2181.48 762.694 2031.59 883.795C1846.22 1033.56 1588.52 1167.69 1305.96 1261.48C1023.25 1355.34 736.33 1401.91 498.134 1392.61C305.633 1385.09 154.959 1341.41 62.6029 1267.78Z" fill="#000072"/>
<path d="M515.64 1393.1C503.018 1393.1 492.679 1382.98 492.459 1370.31C488.516 1142.77 614.783 930.834 620.162 921.923C626.776 910.959 641.038 907.431 652 914.049C662.967 920.665 666.492 934.921 659.874 945.888C658.316 948.483 535.135 1155.85 538.836 1369.5C539.058 1382.31 528.856 1392.87 516.05 1393.09C515.914 1393.1 515.777 1393.1 515.64 1393.1Z" fill="#000072"/>
<path d="M2065.57 847.66C2058.78 847.66 2052.05 844.694 2047.47 838.991C1892.13 645.617 1665.96 628.537 1663.7 628.386C1650.93 627.541 1641.24 616.516 1642.07 603.747C1642.9 590.978 1653.85 581.32 1666.66 582.099C1676.73 582.736 1915.08 600.131 2083.63 809.943C2091.65 819.928 2090.06 834.526 2080.08 842.548C2075.79 845.988 2070.66 847.66 2065.57 847.66Z" fill="#000072"/>
<path d="M1293.74 1116.44C1247.69 1116.44 1210.22 1078.98 1210.22 1032.93C1210.22 986.884 1247.69 949.42 1293.74 949.42C1339.79 949.42 1377.25 986.883 1377.25 1032.93C1377.25 1078.98 1339.79 1116.44 1293.74 1116.44ZM1293.74 995.802C1273.26 995.802 1256.6 1012.46 1256.6 1032.93C1256.6 1053.41 1273.26 1070.06 1293.74 1070.06C1314.21 1070.06 1330.87 1053.4 1330.87 1032.93C1330.87 1012.46 1314.21 995.802 1293.74 995.802Z" fill="#000072"/>
<path d="M1999.27 544.547C1953.22 544.547 1915.75 507.084 1915.75 461.034C1915.75 414.987 1953.22 377.523 1999.27 377.523C2045.32 377.523 2082.78 414.986 2082.78 461.034C2082.78 507.084 2045.32 544.547 1999.27 544.547ZM1999.27 423.905C1978.79 423.905 1962.14 440.56 1962.14 461.034C1962.14 481.508 1978.79 498.165 1999.27 498.165C2019.74 498.165 2036.4 481.507 2036.4 461.034C2036.4 440.56 2019.74 423.905 1999.27 423.905Z" fill="#000072"/>
<path d="M1456.67 737.449C1370.25 778.111 1270.21 815.063 1166.01 849.695C826.327 962.406 569.523 1006.16 502.576 804.085C448.772 642.055 470.107 357.882 695.373 178.226L695.528 178.071C751.034 133.853 819.061 95.8193 901.314 67.6803C1352.46 -86.6197 1665.39 193.997 1732.49 395.916C1778.88 535.838 1652.1 645.611 1456.67 737.449Z" fill="#80F6FF"/>
<g opacity="0.2">
<path d="M1188.27 770.958C898.291 852.91 630.092 834.55 589.305 729.952C548.589 625.354 750.607 474.193 1040.65 392.242C1290.34 321.705 1523.85 325.449 1609.89 394.597C1609.89 394.597 1609.89 394.597 1609.97 394.657C1623.87 405.829 1633.87 418.693 1639.54 433.187C1680.33 537.786 1478.31 689.007 1188.27 770.958Z" fill="#000072"/>
</g>
<g opacity="0.2">
<path d="M1189.5 765.433C1166.47 773.628 1143.12 781.668 1119.47 789.552C839.471 882.472 627.966 918.497 572.769 751.982C534.117 635.87 542.466 443.537 667.543 298.049C669.555 469.82 780.099 756.775 1189.5 765.433Z" fill="#000072"/>
</g>
<path d="M733.148 968.146C732.767 968.146 732.394 968.146 732.013 968.144C597.692 967.863 515.429 916.608 480.529 811.457C449.101 716.765 437.49 560.275 499.157 405.056C546.188 286.675 652.821 128.254 893.732 45.8103C1145.25 -40.2667 1337.76 10.9492 1454.97 69.0622C1625.66 153.693 1721.59 289.641 1754.45 388.645C1788.6 491.558 1741.65 588.037 1614.89 675.405C1519.83 740.93 1379.52 803.32 1173.34 871.753C972.559 938.388 836.705 968.144 733.148 968.146ZM1155.91 46.4472C1082.42 46.4472 999.793 58.5373 908.75 89.6943C488.823 233.4 468.569 628.178 524.551 796.847C552.756 881.83 618.709 921.522 732.11 921.762C732.459 921.762 732.811 921.762 733.16 921.762C831.527 921.764 962.86 892.739 1158.73 827.729C1360.63 760.72 1497.21 700.18 1588.57 637.214C1697.82 561.911 1737.68 485.383 1710.42 403.254C1681.88 317.248 1592.45 189.001 1434.36 110.617C1367.16 77.2913 1273.22 46.4472 1155.91 46.4472Z" fill="#000072"/>
<g opacity="0.6">
<path d="M774.312 276.642C746.079 218.159 923.997 114.468 1135.29 104.524C1377.45 93.1283 1496.65 196.191 1480.14 234.293C1453.92 294.792 1336.99 237.481 1145.37 246.393C971.943 254.459 810.936 352.506 774.312 276.642Z" fill="white"/>
</g>
</svg>
